<?xml version="1.0" encoding="UTF-8" standalone="no"?>
<svg
   xmlns:dc="http://purl.org/dc/elements/1.1/"
   xmlns:cc="http://creativecommons.org/ns#"
   xmlns:rdf="http://www.w3.org/1999/02/22-rdf-syntax-ns#"
   xmlns:svg="http://www.w3.org/2000/svg"
   xmlns="http://www.w3.org/2000/svg"
   id="svg8"
   version="1.1"
   viewBox="0 0 79.374998 79.375002"
   height="300"
   width="300">
  <defs
     id="defs2" />
  <metadata
     id="metadata5">
    <rdf:RDF>
      <cc:Work
         rdf:about="">
        <dc:format>image/svg+xml</dc:format>
        <dc:type
           rdf:resource="http://purl.org/dc/dcmitype/StillImage" />
        <dc:title></dc:title>
      </cc:Work>
    </rdf:RDF>
  </metadata>
  <g
     id="layer1">
    <g
       style="font-style:normal;font-weight:normal;font-size:10.5833px;line-height:1.25;font-family:sans-serif;fill:#000000;fill-opacity:1;stroke:none;stroke-width:0.264583"
       id="text12"
       aria-label="ngxtop">
      <path
         id="path16"
         style="fill:#008000"
         d="m 26.895039,42.31007 h -0.971514 v -3.286611 q 0,-0.397907 -0.04651,-0.744138 -0.04651,-0.351398 -0.170532,-0.547768 -0.129191,-0.217041 -0.372069,-0.320393 -0.242878,-0.10852 -0.63045,-0.10852 -0.397908,0 -0.831988,0.19637 -0.434081,0.196369 -0.831988,0.501259 v 4.309801 h -0.971514 v -5.772239 h 0.971514 v 0.640786 q 0.454751,-0.377237 0.940508,-0.58911 0.485757,-0.211873 0.997352,-0.211873 0.93534,0 1.426265,0.563272 0.490924,0.563271 0.490924,1.622635 z" />
      <path
         id="path18"
         style="fill:#008000"
         d="m 33.44759,41.653781 q 0,1.467606 -0.666624,2.154901 -0.666624,0.687294 -2.051548,0.687294 -0.459919,0 -0.899167,-0.06718 -0.434081,-0.06201 -0.857826,-0.180867 v -0.992184 h 0.05168 q 0.237711,0.09302 0.754474,0.227375 0.516763,0.139526 1.033525,0.139526 0.496092,0 0.821653,-0.118855 0.32556,-0.118856 0.506427,-0.330728 0.180867,-0.201538 0.258382,-0.485757 0.07751,-0.28422 0.07751,-0.635618 v -0.527098 q -0.439248,0.351398 -0.842323,0.527098 -0.397907,0.170531 -1.018023,0.170531 -1.033525,0 -1.643305,-0.744138 -0.604612,-0.749306 -0.604612,-2.108392 0,-0.744138 0.206705,-1.281571 0.211873,-0.542601 0.573606,-0.93534 0.335896,-0.366902 0.816485,-0.568439 0.48059,-0.206706 0.956011,-0.206706 0.50126,0 0.837156,0.103353 0.341063,0.09819 0.7183,0.30489 l 0.06201,-0.248046 h 0.909502 z m -0.971514,-0.930172 v -3.147085 q -0.387572,-0.175699 -0.723468,-0.248046 -0.330728,-0.07751 -0.661456,-0.07751 -0.800982,0 -1.260901,0.537434 -0.459919,0.537433 -0.459919,1.560623 0,0.971514 0.341064,1.472774 0.341063,0.501259 1.13171,0.501259 0.423745,0 0.847491,-0.160196 0.428913,-0.165364 0.785479,-0.439248 z" />
      <path
         id="path20"
         style="fill:#008000"
         d="m 40.356707,42.31007 h -1.224728 l -1.638137,-2.216912 -1.648473,2.216912 h -1.131711 l 2.253086,-2.878368 -2.232415,-2.893871 h 1.224727 l 1.627803,2.180738 1.63297,-2.180738 h 1.136878 l -2.268588,2.842195 z" />
      <path
         id="path22"
         style="stroke-width:0.264583"
         d="m 44.619998,42.258394 q -0.273884,0.07235 -0.599445,0.118855 -0.320393,0.04651 -0.573606,0.04651 -0.883665,0 -1.343583,-0.475422 -0.459919,-0.475421 -0.459919,-1.52445 v -3.06957 h -0.656289 v -0.816485 h 0.656289 v -1.658808 h 0.971514 v 1.658808 h 2.005039 v 0.816485 h -2.005039 v 2.630322 q 0,0.454751 0.02067,0.713132 0.02067,0.253214 0.144694,0.475422 0.113687,0.206705 0.310057,0.30489 0.201538,0.09302 0.60978,0.09302 0.237711,0 0.496092,-0.06718 0.258382,-0.07235 0.37207,-0.118855 h 0.05168 z" />
      <path
         id="path24"
         style="stroke-width:0.264583"
         d="m 50.717799,39.426534 q 0,1.410762 -0.723468,2.227247 -0.723468,0.816485 -1.93786,0.816485 -1.224728,0 -1.948195,-0.816485 -0.718301,-0.816485 -0.718301,-2.227247 0,-1.410762 0.718301,-2.227247 0.723467,-0.821653 1.948195,-0.821653 1.214392,0 1.93786,0.821653 0.723468,0.816485 0.723468,2.227247 z m -1.00252,0 q 0,-1.121375 -0.439248,-1.663976 -0.439249,-0.547768 -1.21956,-0.547768 -0.790647,0 -1.229895,0.547768 -0.434081,0.542601 -0.434081,1.663976 0,1.085202 0.439248,1.648473 0.439249,0.558104 1.224728,0.558104 0.775144,0 1.214392,-0.552936 0.444416,-0.558104 0.444416,-1.653641 z" />
      <path
         id="path26"
         style="stroke-width:0.264583"
         d="m 57.306523,39.354188 q 0,0.702797 -0.201538,1.286739 -0.201537,0.578774 -0.568439,0.981849 -0.341063,0.382404 -0.806149,0.594277 -0.459919,0.206705 -0.976682,0.206705 -0.449583,0 -0.816485,-0.09819 -0.361734,-0.09819 -0.73897,-0.30489 v 2.418449 h -0.971514 v -7.901301 h 0.971514 v 0.604612 q 0.387572,-0.32556 0.868161,-0.542601 0.485757,-0.222208 1.033525,-0.222208 1.043861,0 1.622635,0.790647 0.583942,0.78548 0.583942,2.185907 z m -1.00252,0.02584 q 0,-1.043861 -0.356566,-1.560624 -0.356566,-0.516762 -1.095537,-0.516762 -0.418578,0 -0.842323,0.180867 -0.423745,0.180867 -0.811317,0.475421 v 3.271108 q 0.41341,0.186035 0.707964,0.253214 0.299723,0.06718 0.67696,0.06718 0.811317,0 1.266068,-0.547769 0.454751,-0.547768 0.454751,-1.622634 z" />
    </g>
  </g>
</svg>
